<?xml version="1.0" encoding="utf-8"?>
<!-- Generator: Adobe Illustrator 24.0.0, SVG Export Plug-In . SVG Version: 6.00 Build 0)  -->
<svg version="1.1" id="Layer_1" xmlns="http://www.w3.org/2000/svg" xmlns:xlink="http://www.w3.org/1999/xlink" x="0px" y="0px"
	 viewBox="0 0 512 512" style="enable-background:new 0 0 512 512;" xml:space="preserve">
<style type="text/css">
	.st0{fill:#DAA25E;}
</style>
<path class="st0" d="M184,368h-7.6c-7.1,0-13.6-4.4-15.7-11.2c-2.6-8.2,1.7-16.7,9.5-19.7l120-46.2c8.4-3.2,12.5-12.8,9-21.1
	c-47.3-113.5-59.2-253.4-59.3-255.1c-1.2-15.1-20.8-20.2-29.3-7.6l-23.1,34.7l-34.7-23.1c-9.2-6.1-21.7-1.3-24.4,9.4l-10.5,42
	L88.9,50.7c-9.2-6.1-21.7-1.3-24.4,9.4l-10.5,42L24.9,82.7C13.8,75.3-1,84,0.1,97.2c0.3,4.1,8.2,102.9,38.2,203.3
	c17.9,59.8,40,107.8,65.7,142.4c18,24.3,45.7,37,73.6,37h5.6c30.7,0,56.4-24.4,56.8-55.1C240.5,393.6,215.2,368,184,368L184,368z
	 M81.1,197.9c-3.3-8.2,0.7-17.5,8.9-20.8l80-32c8.2-3.3,17.5,0.7,20.8,8.9c3.3,8.2-0.7,17.5-8.9,20.8C95.3,209.5,100.4,208,96,208
	C89.7,208,83.7,204.2,81.1,197.9z M117.9,270.9c-8.1,3.2-17.5-0.6-20.8-8.9c-3.3-8.2,0.7-17.5,8.9-20.8l80-32
	c8.2-3.3,17.5,0.7,20.8,8.9c3.3,8.2-0.7,17.5-8.9,20.8L117.9,270.9z M432,272c-4.2,0,4.1-2.7-111.6,41.8
	c-0.1-0.2-77.4,29.6-77.3,29.5c-5.7,2.2-6.9,9.6-2.3,13.6c48.7,41.3,38.6,118.9-19,146.5c-4.3,2.1-2.9,8.6,1.9,8.6
	c13.3,0,26-3.2,37.2-9l172.5-71c3.3-0.3,6.3-1.6,8.7-3.6c46.8-19.2,44.6-17.8,47.7-21.1C538.2,356.5,502,272,432,272z"/>
<path class="st0" d="M411.3,187.3c-6.2,6.2-25.8,6.2-32,0c-6.2-6.2-16.4-6.2-22.6,0c-6.2,6.2-6.2,16.4,0,22.6
	c6.7,6.7,16.3,11.3,27.3,13.1V240c0,8.8,7.2,16,16,16c8.8,0,16-7.2,16-16v-19.3c42-14.3,40.8-70.5,2.4-86.4l-24.6-10.2
	c-12.8-5.3-15.1-28.1,10.8-28.1c7.8,0,13.7,2.4,16,4.7c6.2,6.2,16.4,6.2,22.6,0c6.2-6.2,6.2-16.4,0-22.6
	c-6.7-6.7-16.3-11.3-27.3-13.1V48c0-8.8-7.2-16-16-16c-8.8,0-16,7.2-16,16v19.3c-41.6,14.1-41.1,70.4-2.4,86.4l24.6,10.2
	C415.4,167.7,418.7,179.9,411.3,187.3L411.3,187.3z"/>
</svg>
