<?xml version="1.0" encoding="utf-8"?>
<!-- Generator: Adobe Illustrator 24.0.0, SVG Export Plug-In . SVG Version: 6.00 Build 0)  -->
<svg version="1.1" id="Layer_1" xmlns="http://www.w3.org/2000/svg" xmlns:xlink="http://www.w3.org/1999/xlink" x="0px" y="0px"
	 viewBox="0 0 297 297" style="enable-background:new 0 0 297 297;" xml:space="preserve">
<style type="text/css">
	.st0{fill:#DAA25E;}
</style>
<g>
	<path class="st0" d="M30.2,208.7c1.5,1.5,3.5,2.3,5.5,2.3c2,0,4-0.8,5.5-2.3c3-3,3-7.9,0-11c-3.8-3.8-3.8-9.9,0-13.6
		c3-3,3-7.9,0-11c-3-3-7.9-3-11,0C20.4,182.9,20.4,198.9,30.2,208.7L30.2,208.7z"/>
	<path class="st0" d="M23.9,211.3c-5.4-5.4-8.4-12.7-8.4-20.4c0-7.7,3-14.9,8.4-20.4c3-3,3-7.9,0-11c-3-3-7.9-3-11,0
		c-8.4,8.4-13,19.5-13,31.3c0,11.8,4.6,23,13,31.3c1.5,1.5,3.5,2.3,5.5,2.3s4-0.8,5.5-2.3C27,219.2,27,214.3,23.9,211.3L23.9,211.3z
		"/>
	<path class="st0" d="M255.8,89.3c1.5,1.5,3.5,2.3,5.5,2.3c2,0,4-0.8,5.5-2.3c9.8-9.8,9.8-25.8,0-35.6c-3-3-7.9-3-11,0
		c-3,3-3,7.9,0,11c3.8,3.8,3.8,9.9,0,13.6C252.8,81.3,252.8,86.2,255.8,89.3L255.8,89.3z"/>
	<path class="st0" d="M284,40.1c-3-3-7.9-3-11,0c-3,3-3,7.9,0,11c5.4,5.4,8.4,12.7,8.4,20.4c0,7.7-3,14.9-8.4,20.4c-3,3-3,7.9,0,11
		c1.5,1.5,3.5,2.3,5.5,2.3c2,0,4-0.8,5.5-2.3c8.4-8.4,13-19.5,13-31.3S292.4,48.5,284,40.1z"/>
	<path class="st0" d="M267.9,274.6H29.1c-5.7,0-10.3,4.6-10.3,10.3s4.6,10.3,10.3,10.3h238.8c5.7,0,10.3-4.6,10.3-10.3
		S273.6,274.6,267.9,274.6z"/>
	<rect x="104.6" y="189.9" class="st0" width="19.6" height="19.6"/>
	<rect x="104.6" y="53.4" class="st0" width="19.6" height="19.6"/>
	<rect x="172.8" y="189.9" class="st0" width="19.6" height="19.6"/>
	<rect x="104.6" y="121.6" class="st0" width="19.6" height="19.6"/>
	<path class="st0" d="M244.1,12c0-5.7-4.6-10.3-10.3-10.3H63.2c-5.7,0-10.3,4.6-10.3,10.3v248.7h191.3L244.1,12L244.1,12z
		 M138.7,216.7c0,4-3.2,7.2-7.2,7.2H97.3c-4,0-7.2-3.2-7.2-7.2v-34.1c0-4,3.2-7.2,7.2-7.2h34.1c4,0,7.2,3.2,7.2,7.2L138.7,216.7
		L138.7,216.7z M138.7,148.5c0,4-3.2,7.2-7.2,7.2H97.3c-4,0-7.2-3.2-7.2-7.2v-34.1c0-4,3.2-7.2,7.2-7.2h34.1c4,0,7.2,3.2,7.2,7.2
		L138.7,148.5L138.7,148.5z M138.7,80.3c0,4-3.2,7.2-7.2,7.2H97.3c-4,0-7.2-3.2-7.2-7.2V46.1c0-4,3.2-7.2,7.2-7.2h34.1
		c4,0,7.2,3.2,7.2,7.2L138.7,80.3L138.7,80.3z M206.9,216.7c0,4-3.2,7.2-7.2,7.2h-34.1c-4,0-7.2-3.2-7.2-7.2v-34.1
		c0-4,3.2-7.2,7.2-7.2h34.1c4,0,7.2,3.2,7.2,7.2V216.7z M206.9,148.5c0,4-3.2,7.2-7.2,7.2h-34.1c-4,0-7.2-3.2-7.2-7.2v-34.1
		c0-4,3.2-7.2,7.2-7.2h34.1c4,0,7.2,3.2,7.2,7.2V148.5z M206.9,80.3c0,4-3.2,7.2-7.2,7.2h-34.1c-4,0-7.2-3.2-7.2-7.2V46.1
		c0-4,3.2-7.2,7.2-7.2h34.1c4,0,7.2,3.2,7.2,7.2V80.3z"/>
	<rect x="172.8" y="53.4" class="st0" width="19.6" height="19.6"/>
	<rect x="172.8" y="121.6" class="st0" width="19.6" height="19.6"/>
</g>
</svg>
