<?xml version="1.0" encoding="utf-8"?>
<!-- Generator: Adobe Illustrator 24.0.0, SVG Export Plug-In . SVG Version: 6.00 Build 0)  -->
<svg version="1.1" id="Layer_1" xmlns="http://www.w3.org/2000/svg" xmlns:xlink="http://www.w3.org/1999/xlink" x="0px" y="0px"
	 viewBox="0 0 464 464" style="enable-background:new 0 0 464 464;" xml:space="preserve">
<style type="text/css">
	.st0{fill:#DAA25E;}
</style>
<path class="st0" d="M24,192H8c-4.4,0-8,3.6-8,8v256c0,4.4,3.6,8,8,8h16c4.4,0,8-3.6,8-8V200C32,195.6,28.4,192,24,192z"/>
<path class="st0" d="M128.5,208H48v32h120.1C153,231.9,139.6,221,128.5,208z"/>
<path class="st0" d="M232,163.9L267.4,88h-30.1l16-56h-39l-20.3,88H232V163.9z"/>
<path class="st0" d="M232,240c66.2,0,120-53.8,120-120S298.2,0,232,0S112,53.8,112,120S165.8,240,232,240z M201.6,16h73l-16,56h33.9
	L216,236.1V136h-42.1L201.6,16z"/>
<path class="st0" d="M48,400h368v32H48V400z"/>
<path class="st0" d="M48,304h368v32H48V304z"/>
<path class="st0" d="M456,192h-16c-4.4,0-8,3.6-8,8v256c0,4.4,3.6,8,8,8h16c4.4,0,8-3.6,8-8V200C464,195.6,460.4,192,456,192z"/>
<path class="st0" d="M336,207.5c-11.2,13.2-24.8,24.3-40.1,32.5H416v-32h-80V207.5z"/>
<path class="st0" d="M48,256h368v32H48V256z"/>
<path class="st0" d="M48,352h368v32H48V352z"/>
</svg>
