<?xml version="1.0" encoding="utf-8"?>
<!-- Generator: Adobe Illustrator 24.0.0, SVG Export Plug-In . SVG Version: 6.00 Build 0)  -->
<svg version="1.1" id="Layer_1" xmlns="http://www.w3.org/2000/svg" xmlns:xlink="http://www.w3.org/1999/xlink" x="0px" y="0px"
	 viewBox="0 0 512 512" style="enable-background:new 0 0 512 512;" xml:space="preserve">
<style type="text/css">
	.st0{fill:#DAA25E;}
</style>
<g id="Layer_29">
	<path class="st0" d="M388.4,459c0,19.5-15.8,35.3-35.3,35.3H158.9c-19.5,0-35.3-15.8-35.3-35.3v-35.3h-17.7v44.1
		c0,24.4,19.8,44.1,44.1,44.1h211.9c24.4,0,44.1-19.8,44.1-44.1v-44.1h-17.7V459z"/>
	<path class="st0" d="M123.6,53c0-19.5,15.8-35.3,35.3-35.3h26.5c4.9,0,8.8,4,8.8,8.8v17.7c0,4.9,4,8.8,8.8,8.8H309
		c4.9,0,8.8-4,8.8-8.8V26.5c0-4.9,4-8.8,8.8-8.8h26.5c19.5,0,35.3,15.8,35.3,35.3v211.9h17.7V44.1C406,19.8,386.3,0,361.9,0H150.1
		c-24.4,0-44.1,19.8-44.1,44.1v220.7h17.7V53z M211.9,17.7h88.3v17.7h-88.3V17.7z"/>
	<path class="st0" d="M158.9,35.3c-9.8,0-17.7,7.9-17.7,17.7v211.9h92.4l15-22.6c3-4.1,8.8-4.9,12.8-1.9c0.7,0.5,1.3,1.1,1.9,1.9
		l15.1,22.6h92.4V53c0-9.8-7.9-17.7-17.7-17.7h-17.7v8.8c0,14.6-11.9,26.5-26.5,26.5H203c-14.6,0-26.5-11.9-26.5-26.5v-8.8H158.9z
		 M256,97.1c34.1,0,61.8,27.7,61.8,61.8s-27.7,61.8-61.8,61.8s-61.8-27.7-61.8-61.8S221.9,97.1,256,97.1z"/>
	<path class="st0" d="M353.1,476.7c9.8,0,17.7-7.9,17.7-17.7v-35.3H141.2V459c0,9.8,7.9,17.7,17.7,17.7h35.3v-8.8
		c0-9.8,7.9-17.7,17.7-17.7h88.3c9.8,0,17.7,7.9,17.7,17.7v8.8H353.1z"/>
	<path class="st0" d="M273.7,282.5c-3,0-5.7-1.5-7.3-3.9L256,263.1l-10.3,15.5c-1.6,2.5-4.4,3.9-7.3,3.9H61.8v123.6h388.4V282.5
		L273.7,282.5z M283.3,388.4L256,373.3l-27.3,15.1l5.2-31.9l-22.1-22.6l30.5-4.7l13.6-29.1l13.6,29.1l30.5,4.7l-22.1,22.6
		L283.3,388.4z"/>
	<path class="st0" d="M229.5,194.2h17.7c0-4.9,4-8.8,8.8-8.8s8.8,4,8.8,8.8h17.7c0-14.6-11.9-26.5-26.5-26.5
		C241.4,167.7,229.5,179.6,229.5,194.2z"/>
	<path class="st0" d="M220.7,132.4h17.7v17.7h-17.7V132.4z"/>
	<path class="st0" d="M273.7,132.4h17.7v17.7h-17.7V132.4z"/>
</g>
</svg>
