<?xml version="1.0" encoding="utf-8"?>
<!-- Generator: Adobe Illustrator 24.0.0, SVG Export Plug-In . SVG Version: 6.00 Build 0)  -->
<svg version="1.1" id="Capa_1" xmlns="http://www.w3.org/2000/svg" xmlns:xlink="http://www.w3.org/1999/xlink" x="0px" y="0px"
	 viewBox="0 0 512 512" style="enable-background:new 0 0 512 512;" xml:space="preserve">
<style type="text/css">
	.st0{fill:#DAA25E;}
</style>
<g>
	<path class="st0" d="M291,117.7h112.1c-2.7-5-6.2-9.5-10.3-13.5l-94.6-89.5c-3.7-3.5-7.8-6.4-12.1-8.7v106.7h0
		C286.1,115.5,288.3,117.7,291,117.7z"/>
	<path class="st0" d="M471.4,249.3c-12.6-12.6-26.7-22.5-42-29.7c-12.1-5.6-19.7-17.9-19.7-31.2v-41.2H291
		c-19,0-34.3-15.4-34.3-34.3V0H81.1C51.3,0,27.2,24.2,27.2,53.9v394.3c0,29.8,24.2,53.9,53.9,53.9h215.5c5.9,0,11.7,0.9,17.4,2.7
		c15.3,4.7,31.7,7.1,49.1,7.1c35.6,0,68.3-11.6,97.4-34.4h0c4.3-3.4,5-9.7,1.5-14l-47.8-57.5c-2.8-3.4-4.4-7.7-4.4-12.1v-1.2
		c0-4,3.3-7.3,7.3-7.3h87c5.1,0,9.4-3.9,9.8-9l0,0c0.8-9.2,1.1-15.8,1.1-20.1C514.9,314.3,500.3,278.2,471.4,249.3z M107.6,196.2
		l156.5,0c7.9,0,14.7,6.1,15.1,14c0.4,8.4-6.3,15.4-14.7,15.4l-156.5,0c-7.9,0-14.7-6.1-15.1-14C92.5,203.1,99.3,196.2,107.6,196.2z
		 M107.6,274.6l97.7,0c7.9,0,14.7,6.1,15.1,14c0.4,8.4-6.3,15.4-14.7,15.4l-97.7,0c-7.9,0-14.7-6.1-15.1-14
		C92.5,281.6,99.3,274.6,107.6,274.6z M107.6,353.1l80.7,0c7.9,0,14.7,6.1,15.1,14c0.4,8.4-6.3,15.4-14.7,15.4l-80.7,0
		c-7.9,0-14.7-6.1-15.1-14C92.5,360.1,99.3,353.1,107.6,353.1z M206.4,460.7l-98.4,0c-7.9,0-14.7-6.1-15.1-14
		c-0.4-8.4,6.3-15.4,14.7-15.4l98.4,0c7.9,0,14.7,6.1,15.1,14C221.5,453.7,214.8,460.7,206.4,460.7z M485.8,366h-120
		c-6.6,0-12-5.4-12-12l0,0c0-2.6,0.2-5.3,0.5-7.9c0.6-5.3,5.2-9.4,10.5-9.4h36.6c6.1,0,10.7-5.5,9.7-11.5l0,0
		c-4.5-25-20.2-38.7-44.1-38.7c-16.1,0-29.3,6.9-39.3,20.4c-9.3,12.6-14.1,28.7-14.1,47.9c0,19.8,4.6,36.3,13.5,49
		c9.6,13.5,23,20.7,38.8,20.7c7.2,0,14.2-1.9,20.9-5.6c5-2.8,11.3-1.5,14.9,2.9l28.6,34.3c5.5,6.6,3.5,16.5-4,20.5
		c-19.6,10.4-40.7,15.7-63.1,15.7c-38.5,0-69.9-12.5-96-38.3c-26.1-25.7-38.7-56.7-38.7-94.8c0-37.9,12.8-69,39.2-95.1
		c26.4-26.1,57.9-38.8,96.4-38.8c37.6,0,68.2,12.4,93.6,37.8c25.5,25.5,37.8,56,37.8,93.4l0,0C495.3,361.8,491.1,366,485.8,366z"/>
</g>
</svg>
