<?xml version="1.0" encoding="utf-8"?>
<!-- Generator: Adobe Illustrator 24.0.0, SVG Export Plug-In . SVG Version: 6.00 Build 0)  -->
<svg version="1.1" id="Capa_1" xmlns="http://www.w3.org/2000/svg" xmlns:xlink="http://www.w3.org/1999/xlink" x="0px" y="0px"
	 viewBox="0 0 235.2 235.2" style="enable-background:new 0 0 235.2 235.2;" xml:space="preserve">
<style type="text/css">
	.st0{fill:#DAA25E;}
</style>
<g>
	<path class="st0" d="M225.6,97.9c-1,0-2.1,0.1-3.1,0.4l-11.7,3.2l-12.2-29.7c-3.5-8.4-13.7-15.3-22.8-15.3h-59.5
		c0,3.4-0.3,6.7-0.8,9.9h54.3c5.4,0,11.6,4.1,13.7,9.2l18.5,44.9c2.1,5-0.7,9.2-6.1,9.2H41.7c-5.4,0-8.2-4.1-6.1-9.2l1.8-4.3
		c-11.2-3.2-21.1-9.4-28.8-17.7c-3.7,1.4-6.1,4.9-6.1,9.5v6.9c0,6.8,5.5,12.4,12.4,12.4h1.3l-2,4.8c-3.2,7.8-5.8,21.1-5.8,29.5v59
		c0,6.8,5.6,12.4,12.4,12.4h16.2c6.8,0,12.4-5.5,12.4-12.4v-14.7h139v14.7c0,6.8,5.5,12.4,12.4,12.4h16.2c6.8,0,12.4-5.5,12.4-12.4
		v-59c0-8.5-2.6-21.7-5.8-29.5l-2-4.8h1.5c6.8,0,12.4-5.5,12.4-12.4v-6.9C235.2,102.1,231.2,97.9,225.6,97.9z M76.8,177.4
		c0,2.7-2.2,4.9-4.9,4.9H36.8c-2.7,0-4.9-2.2-4.9-4.9v-16.8c0-2.7,2.2-4.9,4.9-4.9h35.1c2.7,0,4.9,2.2,4.9,4.9V177.4z M205.3,177.4
		c0,2.7-2.2,4.9-4.9,4.9h-35.1c-2.7,0-4.9-2.2-4.9-4.9v-16.8c0-2.7,2.2-4.9,4.9-4.9h35.1c2.7,0,4.9,2.2,4.9,4.9V177.4z"/>
	<path class="st0" d="M54.3,2.3C24.3,2.3,0,26.6,0,56.5s24.3,54.3,54.3,54.3s54.3-24.3,54.3-54.3S84.3,2.3,54.3,2.3z M49.8,62
		c-0.7-2.2-1-4.3-1-6.2c0-2.6,0.5-5.2,1.4-7.7h14.9c-1-5.8-4.3-8.7-9.8-8.7c-3.7,0-6.6,1.6-8.9,4.7c-2.3,3.1-3.4,7.1-3.4,11.9
		c0,5.1,1.1,9.2,3.3,12.3c2.2,3.1,5.1,4.7,8.7,4.7c2.9,0,5.7-1.5,8.4-4.4l16.7,20c-7.8,6.1-16.4,9.2-25.9,9.2
		C42.6,97.9,32.9,94,25,86.2c-7.9-7.8-11.8-17.4-11.8-28.9c0-11.4,4-21.1,11.9-28.9c8-7.9,17.7-11.8,29.3-11.8
		c11.3,0,20.8,3.8,28.5,11.5c7.7,7.7,11.5,17.2,11.5,28.4c0,1.1-0.1,3-0.3,5.5H49.8z"/>
</g>
</svg>
