<?xml version="1.0" encoding="utf-8"?>
<!-- Generator: Adobe Illustrator 24.0.0, SVG Export Plug-In . SVG Version: 6.00 Build 0)  -->
<svg version="1.1" id="Layer_1" xmlns="http://www.w3.org/2000/svg" xmlns:xlink="http://www.w3.org/1999/xlink" x="0px" y="0px"
	 viewBox="0 0 512 512" style="enable-background:new 0 0 512 512;" xml:space="preserve">
<style type="text/css">
	.st0{fill:#DAA25E;}
</style>
<path class="st0" d="M245,42c0-6.2,5-11.2,11.2-11.2c6.2,0,11.2,5,11.2,11.2v6h30.8v-6c0-23.1-18.8-42-42-42c-23.1,0-42,18.8-42,42
	v6H245V42z"/>
<path class="st0" d="M380.3,80.9H328v48.3c0,8.5-6.9,15.4-15.4,15.4H199.8c-8.5,0-15.4-6.9-15.4-15.4V80.9h-52.3
	C109.4,80.9,91,99.4,91,122v348.9c0,22.6,18.4,41.1,41.1,41.1h248.2c22.6,0,41.1-18.4,41.1-41.1V122C421.4,99.4,403,80.9,380.3,80.9
	z M168.6,390.9h68.7c8.5,0,15.4,6.9,15.4,15.4s-6.9,15.4-15.4,15.4h-68.7c-8.5,0-15.4-6.9-15.4-15.4S160.1,390.9,168.6,390.9z
	 M153.2,322.6c0-8.5,6.9-15.4,15.4-15.4h68.7c8.5,0,15.4,6.9,15.4,15.4c0,8.5-6.9,15.4-15.4,15.4h-68.7
	C160.1,338,153.2,331.1,153.2,322.6z M283.4,210.1c6-6,15.8-6,21.8,0l7,7l20.8-20.8c6-6,15.8-6,21.8,0s6,15.8,0,21.8L323,249.7
	c-2.9,2.9-6.8,4.5-10.9,4.5s-8-1.6-10.9-4.5l-17.9-17.9C277.4,225.8,277.4,216.1,283.4,210.1z M283.4,293.8c6-6,15.8-6,21.8,0l7,7
	l20.8-20.8c6-6,15.8-6,21.8,0c6,6,6,15.8,0,21.8L323,333.5c-3,3-6.9,4.5-10.9,4.5s-7.9-1.5-10.9-4.5l-17.9-17.9
	C277.4,309.6,277.4,299.8,283.4,293.8z M283.4,377.6c6-6,15.8-6,21.8,0l7,7l20.8-20.8c6-6,15.8-6,21.8,0s6,15.8,0,21.8L323,417.2
	c-3,3-6.9,4.5-10.9,4.5s-7.9-1.5-10.9-4.5l-17.9-17.9C277.4,393.3,277.4,383.6,283.4,377.6z M237.3,223.4c8.5,0,15.4,6.9,15.4,15.4
	s-6.9,15.4-15.4,15.4h-68.7c-8.5,0-15.4-6.9-15.4-15.4s6.9-15.4,15.4-15.4H237.3z"/>
<path class="st0" d="M215.2,78.8h82.1v35.1h-82.1V78.8z"/>
</svg>
