<?xml version="1.0" encoding="utf-8"?>
<!-- Generator: Adobe Illustrator 24.0.0, SVG Export Plug-In . SVG Version: 6.00 Build 0)  -->
<svg version="1.1" id="Capa_1" xmlns="http://www.w3.org/2000/svg" xmlns:xlink="http://www.w3.org/1999/xlink" x="0px" y="0px"
	 viewBox="0 0 512 512" style="enable-background:new 0 0 512 512;" xml:space="preserve">
<style type="text/css">
	.st0{fill:#DAA25E;}
</style>
<g>
	<g>
		<path class="st0" d="M512,317.4V194.6l-47.2-7.2c-3.4-10.5-7.7-20.6-12.6-30.5l28.3-38.5l-86.8-86.8l-38.5,28.3
			c-9.8-5-20-9.2-30.5-12.6L317.4,0H194.6l-7.2,47.2c-10.5,3.4-20.6,7.7-30.5,12.6l-38.5-28.3l-86.8,86.8l28.3,38.5
			c-5,9.8-9.2,20-12.6,30.5L0,194.6v122.8l47.2,7.2c3.4,10.5,7.7,20.6,12.6,30.5l-28.3,38.5l86.8,86.8l38.5-28.3
			c9.8,5,20,9.2,30.5,12.6l7.2,47.2h122.8l7.2-47.2c10.5-3.4,20.6-7.7,30.5-12.6l38.5,28.3l86.8-86.8l-28.3-38.5
			c5-9.8,9.2-20,12.6-30.5L512,317.4z M256,405.9c-82.7,0-149.9-67.3-149.9-149.9S173.3,106.1,256,106.1S405.9,173.3,405.9,256
			S338.7,405.9,256,405.9z"/>
	</g>
</g>
<g>
	<g>
		<path class="st0" d="M256,136.1c-66.1,0-119.9,53.8-119.9,119.9S189.9,375.9,256,375.9S375.9,322.1,375.9,256
			S322.1,136.1,256,136.1z M302.1,298.7c-2.7,5-6.3,9-10.7,12c-4.4,3.1-9.5,5.3-15.3,6.6c-1.8,0.4-3.5,0.8-5.3,1.1V350h-30v-32.2
			c-3.8-0.7-7.5-1.5-11.2-2.6c-4.7-1.4-9.2-3-13.6-4.9c-4.4-1.9-8.4-4.1-12.1-6.6l12.9-25.7c0.5,0.6,2,1.7,4.7,3.4
			c2.6,1.7,5.9,3.4,9.8,5c3.9,1.7,8.2,3.2,13,4.5c4.8,1.3,9.6,2,14.5,2c10.4,0,15.6-3.2,15.6-9.5c0-2.4-0.8-4.4-2.3-5.9
			c-1.6-1.6-3.7-3-6.5-4.2c-2.8-1.3-6-2.4-9.8-3.5c-3.8-1.1-7.9-2.3-12.3-3.6c-5.9-1.8-11-3.7-15.3-5.8c-4.3-2.1-7.9-4.5-10.7-7.3
			c-2.8-2.8-4.9-5.9-6.3-9.5c-1.4-3.6-2.1-7.8-2.1-12.6c0-6.7,1.3-12.6,3.8-17.8c2.5-5.1,5.9-9.5,10.2-13c4.3-3.5,9.3-6.2,15-8
			c0.8-0.3,1.6-0.5,2.5-0.7V162h30v29c3.8,0.8,7.5,1.8,11.1,3c3.9,1.3,7.6,2.8,11,4.5c3.4,1.7,6.6,3.4,9.4,5l-12.9,24.4
			c-0.4-0.5-1.6-1.4-3.8-2.7c-2.2-1.3-4.8-2.7-8.1-4.1c-3.2-1.4-6.8-2.7-10.6-3.8c-3.8-1.1-7.7-1.6-11.5-1.6
			c-10.5,0-15.8,3.5-15.8,10.6c0,2.2,0.6,3.9,1.7,5.4c1.1,1.4,2.8,2.7,5,3.9c2.2,1.1,5,2.2,8.3,3.1c3.3,1,7.2,2,11.7,3.2
			c6.1,1.7,11.6,3.5,16.5,5.5c4.9,2,9.1,4.4,12.5,7.4c3.4,2.9,6,6.5,7.9,10.7c1.9,4.2,2.8,9.2,2.8,15.1
			C306.2,287.6,304.8,293.7,302.1,298.7z"/>
	</g>
</g>
</svg>
