<?xml version="1.0" encoding="utf-8"?>
<!-- Generator: Adobe Illustrator 24.0.0, SVG Export Plug-In . SVG Version: 6.00 Build 0)  -->
<svg version="1.1" id="Layer_1" xmlns="http://www.w3.org/2000/svg" xmlns:xlink="http://www.w3.org/1999/xlink" x="0px" y="0px"
	 viewBox="0 0 512 512" style="enable-background:new 0 0 512 512;" xml:space="preserve">
<style type="text/css">
	.st0{fill:#DAA25E;}
</style>
<path class="st0" d="M4.3,162.8l7.4,11.9c2.3,3.7,7.2,4.9,10.9,2.6L47.9,162c5.3-3.2,12.1,0.6,12.1,6.8V383c0,4.4-3.6,8-8,8H38
	c-4.4,0-8,3.6-8,8v14c0,4.4,3.6,8,8,8h105c4.4,0,8-3.6,8-8V219c0-4.4,3.6-8,8-8h194c4.4,0,8,3.6,8,8v194c0,4.4,3.6,8,8,8h105
	c4.4,0,8-3.6,8-8v-14c0-4.4-3.6-8-8-8h-14c-4.4,0-8-3.6-8-8V168.9c0-6.2,6.8-10.1,12.1-6.8l25.1,15.2c3.8,2.3,8.7,1.1,11-2.7
	l7.7-12.7c2.3-3.8,1.1-8.7-2.7-11L260.2,2.5c-2.6-1.5-5.8-1.5-8.3,0L6.9,151.8C3.1,154.1,1.9,159.1,4.3,162.8z M265.4,184.5
	c-5.4-4.2-13.5-4.2-18.9,0c-2.6,2-6.2,2.1-9,0.4l-12.4-7.6c-4.4-2.7-5.2-8.8-1.5-12.4c17.1-16.8,47.5-16.8,64.6,0
	c3.7,3.6,2.9,9.7-1.5,12.4l-12.4,7.6C271.6,186.6,268,186.5,265.4,184.5z M338.5,145.7l-12,7.3c-3.5,2.1-8.1,1.3-10.5-2
	c-14.2-18.9-36.1-30-60-30s-45.8,11.1-60,30c-2.5,3.3-7,4.1-10.5,2l-12-7.3c-4-2.5-5-7.8-2.3-11.6C191,107,222.1,91,256,91
	s65,16,84.8,43.1C343.6,137.9,342.5,143.2,338.5,145.7z"/>
<path class="st0" d="M265.6,394c-15.2-9.9-31.4,6.4-21.5,21.5c0.6,1,1.4,1.8,2.4,2.4c15.2,9.9,31.4-6.4,21.5-21.5
	C267.3,395.5,266.5,394.7,265.6,394z"/>
<path class="st0" d="M181,249v255c0,4.4,3.6,8,8,8h134c4.4,0,8-3.6,8-8V249c0-4.4-3.6-8-8-8H189C184.6,241,181,244.6,181,249z
	 M219,271h14c4.4,0,8,3.6,8,8v14c0,4.4-3.6,8-8,8h-14c-4.4,0-8-3.6-8-8v-14C211,274.6,214.6,271,219,271z M288,439.6
	c-47.4,35.2-100.8-18.2-65.6-65.6c0.5-0.6,1-1.2,1.6-1.6c47.4-35.2,100.8,18.2,65.6,65.6C289.1,438.6,288.6,439.1,288,439.6z
	 M293,301h-14c-4.4,0-8-3.6-8-8v-14c0-4.4,3.6-8,8-8h14c4.4,0,8,3.6,8,8v14C301,297.4,297.4,301,293,301z"/>
</svg>
