<?xml version="1.0" encoding="utf-8"?>
<!-- Generator: Adobe Illustrator 24.0.0, SVG Export Plug-In . SVG Version: 6.00 Build 0)  -->
<svg version="1.1" id="Capa_1" xmlns="http://www.w3.org/2000/svg" xmlns:xlink="http://www.w3.org/1999/xlink" x="0px" y="0px"
	 viewBox="0 0 512 512" style="enable-background:new 0 0 512 512;" xml:space="preserve">
<style type="text/css">
	.st0{fill:#DAA25E;}
</style>
<g>
	<g>
		<path class="st0" d="M362,0H55C24.7,0,0,24.7,0,55v25h362V0z"/>
		<path class="st0" d="M457,0h-65v80h120V55C512,24.7,487.3,0,457,0z"/>
	</g>
	<g>
		<path class="st0" d="M351,279.3v-54.6c-28.6,6.8-50,32.6-50,63.2c0,6.5,1,12.7,2.7,18.6L351,279.3z"/>
		<path class="st0" d="M351,314l-32.2,18.6c8.6,9.1,19.7,15.7,32.2,18.6V314z"/>
		<path class="st0" d="M146,303c-30.7,0-56.5,21.4-63.3,50h126.5C202.5,324.4,176.7,303,146,303z"/>
		<path class="st0" d="M171,248v-20c0-13.8-11.2-25-25-25s-25,11.2-25,25v20c0,13.8,11.2,25,25,25S171,261.8,171,248z"/>
		<path class="st0" d="M0,110v347c0,30.3,24.7,55,55,55h402c30.3,0,55-24.7,55-55V110H0z M211,449H81c-8.3,0-15-6.7-15-15
			s6.7-15,15-15h130c8.3,0,15,6.7,15,15S219.3,449,211,449z M226,383H66c-8.3,0-15-6.7-15-15c0-37.2,21.4-69.4,52.6-85
			c-7.9-9.5-12.6-21.7-12.6-35v-20c0-30.3,24.7-55,55-55s55,24.7,55,55v20c0,13.3-4.7,25.5-12.6,35c31.2,15.6,52.6,47.8,52.6,85
			C241,376.3,234.3,383,226,383z M431,449H301c-8.3,0-15-6.7-15-15s6.7-15,15-15h130c8.3,0,15,6.7,15,15S439.3,449,431,449z
			 M366,383c-52.4,0-95-42.6-95-95s42.6-95,95-95s95,42.6,95,95S418.4,383,366,383z"/>
		<path class="st0" d="M381,224.8v126.5c28.6-6.8,50-32.6,50-63.2S409.6,231.6,381,224.8L381,224.8z"/>
	</g>
</g>
</svg>
