<?xml version="1.0" encoding="utf-8"?>
<!-- Generator: Adobe Illustrator 24.0.0, SVG Export Plug-In . SVG Version: 6.00 Build 0)  -->
<svg version="1.1" id="bold" xmlns="http://www.w3.org/2000/svg" xmlns:xlink="http://www.w3.org/1999/xlink" x="0px" y="0px"
	 viewBox="0 0 512 512" style="enable-background:new 0 0 512 512;" xml:space="preserve">
<style type="text/css">
	.st0{fill:#DAA25E;}
</style>
<g>
	<path class="st0" d="M37.2,193.6c-4.4,0-8.8-1.8-12-5.4c-5.9-6.6-5.3-16.7,1.3-22.6c42.8-38.1,97.7-59,154.6-59
		c8.1,0,15.9,0.4,23.7,1.3c8.8,1,15.1,8.9,14.1,17.7c-1,8.8-8.8,15-17.7,14.1c-6.6-0.8-13.2-1.2-20.1-1.2
		c-49.1,0-96.4,18.1-133.3,50.9C44.8,192.3,41,193.6,37.2,193.6L37.2,193.6z"/>
</g>
<g>
	<path class="st0" d="M15.6,274.9c-3.1,0-6.3-0.9-9.1-2.8c-7.3-5-9.1-15-4.1-22.3c40.7-59.2,107.5-94.5,178.6-94.5
		c9.2,0,17.6,0.5,25.5,1.6c8.7,1.2,14.9,9.2,13.7,18c-1.2,8.7-9.1,14.9-18,13.7c-6.4-0.9-13.5-1.3-21.2-1.3
		c-60.6,0-117.5,30.1-152.3,80.6C25.7,272.5,20.8,274.9,15.6,274.9L15.6,274.9z"/>
</g>
<g>
	<path class="st0" d="M140.9,512c-4.1,0-8.1-1.5-11.2-4.6c-2.8-2.8-69.1-68.9-69.1-133.1c0-67,54.1-121.5,120.5-121.5
		s120.5,54.5,120.5,121.5c0,8.8-7.2,16-16,16c-8.8,0-16-7.2-16-16c0-49.3-39.7-89.5-88.5-89.5s-88.5,40.1-88.5,89.5
		c0,50.8,59,109.8,59.6,110.4c6.3,6.2,6.3,16.3,0.1,22.6C149.2,510.4,145.1,512,140.9,512L140.9,512z"/>
</g>
<g>
	<path class="st0" d="M63.3,488.4c-4.7,0-9.3-2-12.4-5.9c-25.2-31-38.5-68.4-38.5-108.2c0-47.1,19.7-92.6,53.9-124.7
		c34.3-32.2,79-48.1,126.1-45.2c12.7,0.9,25,3.3,36.6,6.9c8.4,2.6,13.1,11.6,10.5,20.1s-11.7,13.2-20.1,10.5
		c-9.3-2.9-19.2-4.8-29.2-5.5c-37.7-2.4-74.2,10.5-102,36.6c-27.8,26.1-43.8,63-43.8,101.4c0,32.3,10.9,62.7,31.4,88
		c5.6,6.8,4.5,16.9-2.3,22.5C70.4,487.2,66.8,488.4,63.3,488.4L63.3,488.4z"/>
</g>
<g>
	<path class="st0" d="M221.2,512c-31.5,0-104.6-58.5-111.6-123.6c-2.5-23.5,4.8-46.6,19.9-63.6c13.4-15,31.6-23.3,51.3-23.4h0.5
		c19.1,0,36.9,7.4,50.5,20.9c13.9,13.8,21.5,32.2,21.5,51.9v8.1c0,18,14.4,32.7,32.2,32.7c8.7,0,16.7-3.4,22.7-9.5
		c6.4-6.2,9.7-14.4,9.7-23.3v-2.7c0-25.3-6.5-50.1-18.8-71.7c-4.4-7.7-1.7-17.5,6-21.8c7.7-4.4,17.5-1.7,21.8,6
		c15,26.4,23,56.7,23,87.6v2.7c0,17.5-6.8,33.8-19.1,45.9c-11.8,12.1-27.9,18.9-45.3,18.9c-35.4,0-64.2-29-64.2-64.7v-8.1
		c0-11.1-4.3-21.5-12.1-29.2c-7.6-7.5-17.9-11.1-28.3-11.6c-13.5,0.1-22.5,7-27.7,12.8c-9,10-13.5,24.6-12,38.8
		c5.6,51.1,66.7,94.9,79.9,94.9c8.8,0,16,7.2,16,16C237.2,504.8,230.1,512,221.2,512z"/>
</g>
<g>
	<path class="st0" d="M268.6,487.7c-47.3,0-104.4-54.2-104.4-121.5c0-8.8,7.2-16,16-16c8.8,0,16,7.2,16,16
		c0,49.4,43.8,89.5,72.4,89.5c8.8,0,16,7.2,16,16C284.6,480.5,277.4,487.7,268.6,487.7L268.6,487.7z"/>
</g>
<g>
	<path class="st0" d="M373.3,0c-76.5,0-138.7,62.2-138.7,138.7s62.2,138.7,138.7,138.7S512,215.1,512,138.7S449.8,0,373.3,0z
		 M438.7,106.5L364,191.9c-2.9,3.3-7.1,5.3-11.5,5.5c-0.2,0-0.4,0-0.5,0c-4.2,0-8.3-1.7-11.3-4.7L298,150c-6.3-6.3-6.3-16.4,0-22.6
		s16.4-6.3,22.6,0l30.6,30.6l63.4-72.4c5.8-6.7,15.9-7.3,22.6-1.5C443.9,89.8,444.5,99.9,438.7,106.5L438.7,106.5z"/>
</g>
</svg>
