<?xml version="1.0" encoding="utf-8"?>
<!-- Generator: Adobe Illustrator 24.0.0, SVG Export Plug-In . SVG Version: 6.00 Build 0)  -->
<svg version="1.1" id="Layer_3" xmlns="http://www.w3.org/2000/svg" xmlns:xlink="http://www.w3.org/1999/xlink" x="0px" y="0px"
	 viewBox="0 0 512 512" style="enable-background:new 0 0 512 512;" xml:space="preserve">
<style type="text/css">
	.st0{fill:#DAA25E;}
</style>
<path class="st0" d="M360,280h-16v24c0,4.4-3.6,8-8,8h-24v16h22.1l30.3-15.2c1.1-0.5,2.3-0.8,3.6-0.8h8v-96h-8
	c-2.1,0-4.2-0.8-5.7-2.3L332.7,184H272v16h64c4.4,0,8,3.6,8,8v24h16c4.4,0,8,3.6,8,8v32C368,276.4,364.4,280,360,280z"/>
<path class="st0" d="M136,336c0,3-1.8,5.8-4.5,7.1c48,68.8,142.7,85.6,211.5,37.5c14.6-10.2,27.3-22.9,37.5-37.5
	c-2.7-1.3-4.5-4.1-4.5-7.1v-8h-6.1l-30.3,15.2c-1.1,0.5-2.3,0.8-3.6,0.8H176c-1.2,0-2.5-0.3-3.6-0.8L142.1,328H136V336z"/>
<path class="st0" d="M232,200v-16h-52.7l-29.7,29.7c-1.5,1.5-3.5,2.3-5.7,2.3h-8v96h8c1.2,0,2.5,0.3,3.6,0.8l30.3,15.2H296v-16h-88
	v-16h120v-16H208v-16h144v-16H208v-16h120v-16H192v-16H232z"/>
<path class="st0" d="M60.9,184h43.4c39.7-83.8,139.8-119.5,223.6-79.8c35,16.6,63.2,44.8,79.8,79.8h43.4c-5-13.5-11.3-26.5-19-38.7
	c-2-3.2-1.5-7.3,1.1-9.9l15.2-15.2l-56.6-56.6l-15.2,15.2c-2.6,2.6-6.8,3.1-9.9,1.1c-19.8-12.5-41.6-21.5-64.5-26.7
	c-3.6-0.8-6.2-4.1-6.2-7.8V24h-80v21.4c0,3.7-2.6,7-6.2,7.8c-22.8,5.2-44.6,14.2-64.5,26.7c-3.2,2-7.3,1.5-9.9-1.1l-15.2-15.2
	l-56.6,56.6l15.2,15.2c2.6,2.6,3.1,6.8,1.1,9.9C72.3,157.5,65.9,170.5,60.9,184L60.9,184z"/>
<path class="st0" d="M432.1,366.7c4.5-7.3,8.6-14.9,12.2-22.7H399c-48.5,79-151.9,103.7-230.9,55.2c-22.5-13.8-41.4-32.7-55.2-55.2
	H67.8c3.6,7.8,7.6,15.4,12.2,22.7c2,3.2,1.5,7.3-1.1,9.9l-15.2,15.2l56.6,56.6l15.2-15.2c2.6-2.6,6.8-3.1,9.9-1.1
	c19.8,12.5,41.6,21.5,64.5,26.7c3.6,0.8,6.2,4.1,6.2,7.8V488h80v-21.4c0-3.7,2.6-7,6.2-7.8c22.8-5.2,44.6-14.2,64.5-26.7
	c3.2-2,7.3-1.5,9.9,1.1l15.2,15.2l56.6-56.6l-15.2-15.2C430.5,374,430,369.8,432.1,366.7L432.1,366.7z"/>
<path class="st0" d="M389.9,184C350.1,110.1,257.9,82.4,184,122.1c-26.2,14.1-47.7,35.6-61.9,61.9h5.9c4.4,0,8,3.6,8,8v8h4.7
	l29.7-29.7c1.5-1.5,3.5-2.3,5.7-2.3h64c4.4,0,8,3.6,8,8v24h8v-24c0-4.4,3.6-8,8-8h72c2.1,0,4.2,0.8,5.7,2.3l29.7,29.7h4.7v-8
	c0-4.4,3.6-8,8-8H389.9z"/>
<path class="st0" d="M392,200v16v96v16h96V200H392z"/>
<path class="st0" d="M24,200h96v128H24V200z"/>
</svg>
