<?xml version="1.0" encoding="utf-8"?>
<!-- Generator: Adobe Illustrator 24.0.0, SVG Export Plug-In . SVG Version: 6.00 Build 0)  -->
<svg version="1.1" id="Capa_1" xmlns="http://www.w3.org/2000/svg" xmlns:xlink="http://www.w3.org/1999/xlink" x="0px" y="0px"
	 viewBox="0 0 512 512" style="enable-background:new 0 0 512 512;" xml:space="preserve">
<style type="text/css">
	.st0{fill:#DAA25E;}
</style>
<g>
	<g>
		<path class="st0" d="M470.7,158.1L305.7,6.6C300.3,2.3,293.8,0,287,0c-6.8,0-13.3,2.3-18.7,6.6l-165,151
			c-12.9,10.3-15.1,29.2-4.7,42.2c10.3,12.9,29.2,15.1,42.2,4.7L287,69.5l146.3,135.5c12.1,9.7,32.3,7.6,42.1-4.7
			C485.8,187.3,483.7,168.4,470.7,158.1z"/>
	</g>
</g>
<g>
	<g>
		<path class="st0" d="M437,0h-60c-8.3,0-15,6.7-15,15v2.4l90,83V15C452,6.8,445.3,0,437,0z"/>
	</g>
</g>
<g>
	<g>
		<path class="st0" d="M47,241H15c-8.3,0-15,6.7-15,15v241c0,8.3,6.7,15,15,15h32c24.8,0,45-20.2,45-45V286
			C92,261.2,71.9,241,47,241z"/>
	</g>
</g>
<g>
	<g>
		<path class="st0" d="M499.7,276.7c-12.3-9-29.4-7.2-39.6,3.9l-81,100.8c-5.7,6-16.5,9.6-22.2,9.6H227c-8.4,0-15-6.6-15-15
			s6.6-15,15-15c67.2,0,45.3,0,120,0c16.5,0,30-13.5,30-30c0-16.5-13.5-30-30-30c-70.4,0-3.3,0-78.6,0c-7.5,0-11.2-4.7-17.1-9.9
			c-9-8.1-19.2-14.1-29.7-18.3c-32.5-13.3-70.1-9.3-99.6,11.3c0,54.6,0,136,0,197.9h225c28.2,0,55.2-13.5,72-36l87-127
			C515.9,305.8,513.2,286.6,499.7,276.7z"/>
	</g>
</g>
<g>
	<g>
		<path class="st0" d="M287,110.3L152,234.9v4.1c9.9-2.3,20-3.8,30.3-3.8c17.5,0,34.5,3.3,50.6,9.9c3.2,1.3,6,3.1,9.1,4.6V226
			c0-8.3,6.7-15,15-15h60c8.3,0,15,6.7,15,15v45h15c24.1,0,44.9,14.2,54.4,34.7l20.6-25.6v-44.9L287,110.3z"/>
	</g>
</g>
<g>
	<g>
		<polygon class="st0" points="272,241 272,269.4 273.8,271 302,271 302,241 		"/>
	</g>
</g>
</svg>
