<?xml version="1.0" encoding="utf-8"?>
<!-- Generator: Adobe Illustrator 24.0.0, SVG Export Plug-In . SVG Version: 6.00 Build 0)  -->
<svg version="1.1" id="Capa_1" xmlns="http://www.w3.org/2000/svg" xmlns:xlink="http://www.w3.org/1999/xlink" x="0px" y="0px"
	 viewBox="0 0 512 512" style="enable-background:new 0 0 512 512;" xml:space="preserve">
<style type="text/css">
	.st0{fill:#DAA25E;}
</style>
<g>
	<path class="st0" d="M345,153c-35.8,9.8-53,50.9-34.5,83.2l34.5-34.5V153z"/>
	<path class="st0" d="M352,465h-19.3l-6-36H185.3l-6,36H160c-8.3,0-15,6.7-15,15s6.7,15,15,15h192c8.3,0,15-6.7,15-15
		S360.3,465,352,465z"/>
	<path class="st0" d="M331.7,257.5C364,276,405.2,258.8,415,223h-48.8L331.7,257.5z"/>
	<path class="st0" d="M467,17H271v47c0,8.3-6.7,15-15,15s-15-6.7-15-15V17H45C20.2,17,0,37.2,0,62v292c0,24.8,20.2,45,45,45h422
		c24.8,0,45-20.2,45-45V62C512,37.2,491.8,17,467,17z M223,288c0,8.3-6.7,15-15,15H80c-8.3,0-15-6.7-15-15V128c0-8.3,6.7-15,15-15
		s15,6.7,15,15v145h34v-97c0-8.3,6.7-15,15-15s15,6.7,15,15v97h34v-49c0-8.3,6.7-15,15-15s15,6.7,15,15V288z M360,295
		c-48,0-87-39-87-87c0-48,39-87,87-87s87,39,87,87S408,295,360,295z"/>
	<path class="st0" d="M375,153v40h40C409.7,173.6,394.4,158.3,375,153z"/>
</g>
</svg>
