<?xml version="1.0" encoding="utf-8"?>
<!-- Generator: Adobe Illustrator 24.0.0, SVG Export Plug-In . SVG Version: 6.00 Build 0)  -->
<svg version="1.1" id="Capa_1" xmlns="http://www.w3.org/2000/svg" xmlns:xlink="http://www.w3.org/1999/xlink" x="0px" y="0px"
	 viewBox="0 0 512 512" style="enable-background:new 0 0 512 512;" xml:space="preserve">
<style type="text/css">
	.st0{fill:#DAA25E;}
</style>
<g>
	<path class="st0" d="M271,264.7v105l90.9-52.5v-105L271,264.7z"/>
	<path class="st0" d="M256,238.7l90.9-52.5L256,133.7l-90.9,52.5L256,238.7z"/>
	<path class="st0" d="M241,264.7l-90.9-52.5v105l90.9,52.5V264.7z"/>
	<path class="st0" d="M465.7,317.3c11.7-39.9,11.6-82.6,0-122.7c19.4-16,25-44.2,12-66.7c-13-22.5-40.2-31.7-63.7-23
		c-28.7-30-65.7-51.4-106.2-61.3C303.6,18.9,282,0,256,0c-25.9,0-47.5,18.9-51.7,43.7c-40.3,9.8-77.4,31.2-106.2,61.4
		c-10.2-3.8-21.2-4.4-31.9-1.5c-13.5,3.6-24.9,12.3-31.9,24.5c-13,22.5-7.4,50.6,12,66.7c-11.7,39.9-11.6,82.6,0,122.7
		c-19.4,16-25,44.2-12,66.7c7,12.1,18.3,20.8,31.9,24.5c4.5,1.2,9.1,1.8,13.7,1.8c6.2,0,12.3-1.1,18.1-3.3
		c28.7,30,65.7,51.4,106.2,61.3C208.4,493.1,230,512,256,512c25.9,0,47.5-18.9,51.7-43.7c40.3-9.8,77.4-31.2,106.2-61.4
		c5.9,2.2,12.1,3.3,18.2,3.3c18.2,0,35.8-9.4,45.6-26.2C490.7,361.5,485.1,333.4,465.7,317.3L465.7,317.3z M304,438.3
		c-8.2-18.4-26.6-31.3-48-31.3c-21.4,0-39.8,12.9-48,31.3c-32.5-8.6-62.3-25.8-85.9-49.5c3.8-5.2,6.6-11,8.3-17.4
		c3.6-13.5,1.8-27.7-5.2-39.8c-10.7-18.5-31.1-28.1-51.1-25.9c-8.8-32.5-8.8-66.8-0.1-99.1c1.9,0.2,3.7,0.3,5.6,0.3
		c18.2,0,35.8-9.4,45.6-26.2c7-12.1,8.9-26.3,5.2-39.8c-1.7-6.4-4.5-12.2-8.3-17.4c23.7-23.9,53.5-41.1,85.8-49.6
		c8.2,18.4,26.6,31.3,48,31.3c21.4,0,39.8-12.9,48-31.3c32.5,8.6,62.3,25.8,85.9,49.5c-11.9,16.3-13.8,38.7-3.1,57.2
		c9.7,16.8,27.4,26.2,45.6,26.2c1.8,0,3.7-0.1,5.5-0.3c8.8,32.5,8.8,66.8,0,99.1c-20-2.1-40.4,7.4-51.1,25.9
		c-10.7,18.5-8.8,40.9,3.1,57.2C366.1,412.6,336.4,429.8,304,438.3L304,438.3z"/>
</g>
</svg>
