<?xml version="1.0" encoding="utf-8"?>
<!-- Generator: Adobe Illustrator 24.0.0, SVG Export Plug-In . SVG Version: 6.00 Build 0)  -->
<svg version="1.1" id="Capa_1" xmlns="http://www.w3.org/2000/svg" xmlns:xlink="http://www.w3.org/1999/xlink" x="0px" y="0px"
	 viewBox="0 0 512 512" style="enable-background:new 0 0 512 512;" xml:space="preserve">
<style type="text/css">
	.st0{fill:#DAA25E;}
</style>
<g>
	<path class="st0" d="M305.7,285.8l3.5,0.8l3.5-0.8c27.2-6.5,51.8-22.1,69.1-44.1s26.9-49.5,26.9-77.4V83.5l-99.5-52.2l-99.5,52.2
		v80.8c0,28,9.6,55.5,26.9,77.4C253.9,263.7,278.5,279.3,305.7,285.8z M274.5,141l25.2,24.8l44.1-44.1L365,143l-65.1,65.1
		l-46.4-45.8L274.5,141z"/>
	<path class="st0" d="M0,282.6v198.1h33c7.7,0,14.8-2,21.1-5.6v-187c-6.2-3.5-13.4-5.5-21.1-5.5L0,282.6L0,282.6z"/>
	<path class="st0" d="M503.4,297.3c-11.1-11.1-29-11.6-40.6-1l-62.2,56.5c0.1,1.1,0.1,2.1,0.1,3.2c0,31-25.2,56.2-56.2,56.2H240v-30
		h104.5c14.5,0,26.2-11.8,26.2-26.2s-11.8-26.2-26.2-26.2H229.5l-4.5-5.2c-18.2-21.1-44.5-33.2-72.3-33.2c-26,0-50.7,10.6-68.6,29.2
		v133.7l76.8,26h196L503,339.3c5.7-5.5,8.9-13,9-20.9C512.1,310.4,509,302.9,503.4,297.3z"/>
</g>
</svg>
