<?xml version="1.0" encoding="utf-8"?>
<!-- Generator: Adobe Illustrator 26.0.1, SVG Export Plug-In . SVG Version: 6.00 Build 0)  -->
<svg version="1.1" id="Layer_1" xmlns="http://www.w3.org/2000/svg" xmlns:xlink="http://www.w3.org/1999/xlink" x="0px" y="0px"
	 viewBox="0 0 512 512" style="enable-background:new 0 0 512 512;" xml:space="preserve">
<style type="text/css">
	.st0{fill:#DAA25E;}
</style>
<g>
	<path class="st0" d="M0.01,429.98c0.97-3.83,1.85-7.69,2.93-11.49c9.82-34.29,43.3-56.51,78.82-52.35
		c35.61,4.17,63.08,33.97,64.39,69.8c0.07,1.82,0.16,3.69,0.67,5.42c1.27,4.38,4.45,6.67,8.92,6.51c4.46-0.16,7.53-2.64,8.43-7.12
		c0.46-2.26,0.43-4.63,0.43-6.96c0.02-99.48,0.02-305.53,0.02-305.53h54.46V429.8c0,0-9.86-0.01-14.64,0
		c-8.14,0.01-12.36,3.07-12.4,8.97c-0.04,5.97,4.25,9.21,12.24,9.21c53.65,0.01,107.31,0,160.96,0c35.32,0,70.65,0,105.97,0
		c1.5,0,3.01,0.08,4.5-0.05c5.18-0.44,8.77-4.22,8.76-9.13c-0.01-4.96-3.58-8.75-8.84-8.92c-5.96-0.19-11.93-0.04-18.56-0.04
		c0-2.43,0-4.36,0-6.29c0-54.82-0.34-109.64,0.19-164.46c0.18-18.22-13.03-31.07-29.89-30.6c-22.48,0.62-44.98,0.13-67.48,0.2
		c-3.96,0.01-7.92,0.44-12.2,0.69c0-33.57,0-67.27,0-101.38c1.93,0,3.57,0,5.21,0c48.82,0,97.64,0.07,146.46-0.1
		c5.51-0.02,9.64,1.51,12.62,6.1c0,126,0,251.99,0,377.99c-148.99,0-446.98,0-446.98,0s0.96,0.17,0,0
		c-29.33-5.29-51.64-23.05-61.54-51.02c-1.59-4.5-2.32-9.31-3.45-13.98C0.01,441.32,0.01,435.65,0.01,429.98z M392.96,484.65
		c29.15,0,58.3,0.01,87.45,0c8.74,0,13.36-3.26,13.3-9.31c-0.06-6.03-4.64-9.17-13.44-9.17c-58.13,0-116.27,0-174.4,0
		c-8.85,0-13.22,3.1-13.17,9.3c0.04,6.19,4.34,9.17,13.31,9.18C335,484.65,363.98,484.65,392.96,484.65z M228.6,484.64
		c11.66,0,23.32,0.11,34.98-0.04c7.18-0.09,11.18-4.24,10.5-10.35c-0.56-5.05-4.4-8.04-10.82-8.06
		c-23.15-0.06-46.31-0.04-69.46,0.02c-1.79,0-3.72,0.25-5.36,0.93c-3.74,1.57-5.64,4.57-5.46,8.68c0.18,4.1,2.32,6.96,6.22,8.12
		c2.03,0.61,4.27,0.67,6.42,0.68C206.61,484.68,217.61,484.65,228.6,484.64z"/>
	<path class="st0" d="M82.01,0c4.47,1.15,9.01,2.09,13.4,3.49c30.95,9.88,50.74,37.58,50.77,71.29
		c0.07,74.99,0.02,149.98,0.02,224.96c0,25.66,0,51.32,0,76.99c0,1.79,0,3.58,0,5.38c-0.52,0.39-1.05,0.79-1.57,1.18
		c-0.46-1.02-0.71-2.22-1.41-3.04C105.46,336,38.45,336.99,1.78,382.3c-0.51,0.63-1.18,1.13-1.77,1.69c0-106.33,0-212.66,0-318.99
		c0.33-1.27,0.72-2.52,0.98-3.8C7.06,30.97,24.92,11.43,54.36,2.47C57.84,1.41,61.46,0.81,65.01,0C70.67,0,76.34,0,82.01,0z
		 M36.63,214.99c0-33.97-0.01-67.95,0.01-101.92c0-4.09,0.06-8.61-4.01-10.57c-2.66-1.28-6.54-1.54-9.33-0.62
		c-4.28,1.41-5.1,5.66-5.1,9.92c0.02,68.61,0.01,137.22,0.03,205.83c0,7.23,3.34,11.31,9.07,11.39c5.78,0.09,9.17-3.94,9.33-11.12
		c0.03-1.33,0.01-2.66,0.01-4C36.63,280.94,36.63,247.97,36.63,214.99z M36.49,64.3c-0.02,0-0.04,0-0.06,0c0-3.48,0.3-7-0.07-10.44
		c-0.53-4.9-4-7.87-8.62-8c-4.82-0.13-8.9,2.89-9.24,7.88c-0.45,6.77-0.45,13.61-0.02,20.39c0.32,5.02,4.34,8.1,9.14,8.01
		c4.79-0.08,8.29-3.24,8.81-8.39C36.74,70.63,36.49,67.45,36.49,64.3z"/>
	<path class="st0" d="M329.08,429.58c-6.28,0-11.88,0-18.17,0c0-5.79,0.09-11.39-0.02-16.99c-0.16-8.31,0.41-16.76-0.87-24.9
		c-2.22-14.12-14.86-22.93-29.53-21.76c-13.31,1.06-24.17,12.71-24.43,26.55c-0.2,10.66-0.04,21.33-0.07,31.99
		c0,1.62-0.14,3.23-0.23,5.08c-5.92,0-11.52,0-17.54,0c0-24.14,0-48.17,0-72.9c7.62,0,15.22,0,22.82,0c3.83,0,7.67,0.08,11.5-0.03
		c6.86-0.19,10.75-3.58,10.75-9.21c0-5.61-3.99-9.15-10.74-9.22c-9.16-0.1-18.33-0.03-27.49-0.03c-2.15,0-4.3,0-6.85,0
		c0-6,0-11.74,0-18.18c4.3,0,8.74,0,13.17,0c7.5,0,15,0.11,22.49-0.05c5.82-0.12,9.57-4.05,9.41-9.42
		c-0.15-5.17-3.79-8.61-9.57-8.67c-10-0.11-19.99-0.04-29.99-0.04c-1.79,0-3.58,0-5.63,0c0-6.33,0-12.08,0-18.48
		c8.12,0,16.07,0,24.02,0c3.83,0,7.67,0.08,11.5-0.03c6.07-0.19,9.71-3.68,9.67-9.09c-0.04-5.32-3.8-8.99-9.81-9.08
		c-9.83-0.14-19.66-0.05-29.49-0.05c-1.81,0-3.62,0-5.8,0c0-6.04,0-11.76,0-18.15c6.42,0,12.86,0,19.3,0
		c5.17,0,10.33,0.08,15.5-0.02c6.37-0.12,10.26-3.64,10.31-9.11c0.05-5.56-3.71-9.03-10.17-9.09c-9.83-0.09-19.66-0.03-29.49-0.03
		c-1.78,0-3.57,0-5.53,0c0-6.4,0-12.16,0-18.48c7.39,0,14.51,0,21.63,0c4.17,0,8.33,0.02,12.5-0.01c7.25-0.05,11.16-3.33,11.06-9.21
		c-0.09-5.64-4.03-8.92-10.9-8.95c-9.66-0.04-19.33-0.01-28.99-0.01c-1.64,0-3.27,0-5.24,0c0-6.09,0-11.81,0-18.18
		c10.04,0,19.98,0,29.91,0c2.17,0,4.35,0.12,6.49-0.11c5.36-0.57,8.75-4.2,8.75-9.14c0-4.96-3.3-8.74-8.77-9.03
		c-7.15-0.37-14.32-0.17-21.49-0.2c-4.82-0.02-9.63,0-14.84,0c0-6.05,0-11.79,0-18.26c3.53,0,7.13,0,10.73,0c7.16,0,14.33,0,21.49,0
		c8.72,0,12.78-2.83,12.85-8.95c0.08-6.32-4.02-9.2-13.1-9.2c-9,0-18,0.01-26.99-0.01c-1.62,0-3.24-0.14-5.11-0.22
		c0-5.93,0-11.53,0-17.76c1.72-0.09,3.47-0.24,5.21-0.25c9.66-0.03,19.33,0.07,28.99-0.04c7.14-0.08,11.13-3.63,11-9.45
		c-0.12-5.57-4.12-8.93-10.96-8.99c-10.99-0.1-21.99-0.08-32.99-0.13c-0.3,0-0.59-0.22-1.34-0.5c0-12.43-0.28-25.04,0.15-37.63
		c0.15-4.44,3.7-7.08,8.26-7.16c9.66-0.16,19.34-0.3,28.98,0.13c2.47,0.11,5.49,1.81,7.17,3.73c14.26,16.3,28.24,32.85,42.37,49.25
		c2.97,3.44,4.26,7.1,4.26,11.77c-0.12,107.31-0.09,214.62-0.09,321.92C329.08,425.4,329.08,427.22,329.08,429.58z"/>
	<path class="st0" d="M438.66,429.57c-6.03,0-11.62,0-17.74,0c-0.11-2.26-0.27-4.35-0.29-6.45c-0.13-10.99,0.34-22.01-0.47-32.95
		c-0.98-13.38-12.02-23.6-24.91-24.29c-13.98-0.75-25.8,7.74-28.74,21.11c-0.84,3.84-0.66,7.94-0.69,11.92
		c-0.09,10.11-0.03,20.22-0.03,30.6c-6.2,0-11.8,0-18.06,0c-0.12-1.65-0.34-3.39-0.34-5.12c-0.02-54.96-0.02-109.92-0.01-164.88
		c0-9.79,2.77-12.59,12.36-12.6c22.65-0.01,45.3-0.02,67.95,0.01c7.74,0.01,11.19,3.24,11.19,10.76
		c0.04,56.29,0.02,112.58,0.01,168.87C438.9,427.37,438.77,428.19,438.66,429.57z M370.05,356.79c2.26-0.17,4.28-0.15,6.23-0.5
		c4.71-0.84,7.28-3.84,7.64-8.54c0.34-4.48-2.72-8.6-7.44-9.16c-4.24-0.51-8.66-0.48-12.88,0.15c-4.52,0.67-7.1,4.57-6.85,9.06
		c0.25,4.55,2.68,7.45,7.13,8.39C365.97,356.63,368.16,356.62,370.05,356.79z M415.98,337.93c-0.01,0.11-0.02,0.23-0.03,0.34
		c-1.66,0-3.35-0.17-4.99,0.03c-5.17,0.62-8.8,4.56-8.7,9.27c0.1,4.6,3.47,8.41,8.54,8.82c3.94,0.32,8.01,0.29,11.91-0.32
		c4.54-0.71,6.84-4.2,6.92-8.57c0.07-4.16-2.08-7.42-6.28-8.6C420.99,338.23,418.44,338.23,415.98,337.93z M416.24,301.87
		c0-0.01,0-0.02,0-0.03c-1.66,0-3.33-0.09-4.99,0.02c-5.17,0.32-8.91,4.04-8.97,8.87c-0.06,4.79,3.63,8.84,8.73,9.17
		c3.48,0.23,7.01,0.26,10.47-0.05c4.81-0.44,8.29-4.52,8.23-9.13c-0.07-4.65-3.64-8.42-8.48-8.83
		C419.57,301.75,417.9,301.87,416.24,301.87z M416.04,283.26c0,0.01,0,0.01,0,0.02c1.5,0,3,0.08,4.49-0.01
		c5.28-0.33,8.98-3.86,9.17-8.7c0.19-4.73-3.43-8.92-8.53-9.37c-3.47-0.3-7-0.31-10.47,0.01c-5.07,0.47-8.67,4.75-8.42,9.46
		c0.25,4.67,3.78,8.17,8.76,8.56C412.71,283.37,414.38,283.26,416.04,283.26z M370.35,283.27c0,0.01,0,0.01,0,0.02
		c1.5,0,3,0.08,4.49-0.01c5.31-0.34,8.95-3.85,9.11-8.71c0.16-4.84-3.33-8.89-8.49-9.36c-3.46-0.31-7-0.32-10.46,0.01
		c-5.16,0.49-8.48,4.51-8.27,9.49c0.2,4.83,3.5,8.15,8.64,8.55C367.02,283.37,368.69,283.27,370.35,283.27z M370.35,301.86
		c0-0.01,0-0.02,0-0.04c-1.5,0-3-0.06-4.49,0.01c-5.43,0.27-8.93,3.58-9.13,8.58c-0.21,5.19,3.35,9.17,8.77,9.5
		c3.31,0.2,6.67,0.23,9.97-0.03c5.08-0.41,8.65-4.51,8.49-9.35c-0.16-4.66-3.72-8.29-8.62-8.66
		C373.68,301.75,372.01,301.86,370.35,301.86z"/>
	<path class="st0" d="M292.31,429.52c-6.06,0-11.77,0-17.95,0c0-12.67-0.23-25.07,0.12-37.46c0.13-4.73,4.22-7.9,8.68-8.04
		c4.5-0.14,8.88,2.88,9.02,7.54C292.57,404.12,292.31,416.69,292.31,429.52z"/>
	<path class="st0" d="M402.19,429.53c-6.21,0-11.8,0-18.19,0c0-2.29,0-4.54,0-6.79c0-9.5-0.06-19,0.02-28.5
		c0.05-6.22,3.8-10.28,9.2-10.23c5.22,0.05,8.89,3.95,8.94,9.92C402.26,405.72,402.19,417.5,402.19,429.53z"/>
</g>
</svg>
